<svg width="604" height="738" viewBox="0 0 604 738" fill="none" xmlns="http://www.w3.org/2000/svg">
<g opacity="0.1">
<path d="M435.738 162.375L411.486 150.546M435.738 162.375L488.625 197.347L511.205 217.256M435.738 162.375L368.649 143.488M435.738 162.375L451.359 176.262M411.486 150.546L380.338 141.466L341.171 133.07M411.486 150.546L356.724 137.612M341.171 133.07L323.031 130.139M341.171 133.07L356.724 137.612M341.171 133.07L301.198 150.654M323.031 130.139L303.488 129M323.031 130.139L301.198 150.654M303.488 129L283.797 129.721M303.488 129L301.198 150.654M283.797 129.721L265.224 132.26M283.797 129.721L301.198 150.654M265.224 132.26L230.033 139.855L197.574 148.236M265.224 132.26L248.976 136.459M265.224 132.26L301.198 150.654M197.574 148.236L171.563 159.498M197.574 148.236L248.976 136.459M171.563 159.498L120.772 193.244L95.291 212.552M171.563 159.498L153.818 172.991M171.563 159.498L236.131 142.064M95.291 212.552L52.2564 265.346L36.684 292.366M95.291 212.552L83.0914 234.046M95.291 212.552L153.818 172.991M36.684 292.366L9.16713 358.966M36.684 292.366L83.0914 234.046M36.684 292.366L38.8631 320.603M9.16713 358.966L2 429.204L3.74227 464.097M9.16713 358.966L11.0135 391.565M3.74227 464.097L17.039 533.008M3.74227 464.097L11.0135 391.565M3.74227 464.097L26.6291 498.244M17.039 533.008L49.2836 593.686L69.3844 624.726M17.039 533.008L39.1412 566.926M69.3844 624.726L114.47 668.219L144.996 691.074M69.3844 624.726L106.708 652.523M69.3844 624.726L39.1412 566.926M144.996 691.074L192.674 711.632L222.35 724.378M144.996 691.074L106.708 652.523M144.996 691.074L187.358 709.266M222.35 724.378L257.941 732.733M222.35 724.378L187.358 709.266M257.941 732.733L296.821 736.01M257.941 732.733L238.582 721.249M296.821 736.01L294.772 725.96M296.821 736.01L336.047 733.932M336.047 733.932L372.641 726.677M336.047 733.932L351.486 722.973M372.641 726.677L403.885 714.842L448.923 695.647M372.641 726.677L404.223 712.559M448.923 695.647L482.377 673.689L526.163 631.366M448.923 695.647L485.126 658.104M448.923 695.647L404.223 712.559M526.163 631.366L526.52 630.67L555.549 574.201M526.163 631.366L550.334 600.848L582.281 540.822M526.163 631.366L485.126 658.104M582.281 540.822L595.436 471.958M582.281 540.822L555.549 574.201M595.436 471.958L602 437.011L594.717 366.263M595.436 471.958L588.166 398.905M595.436 471.958L567.684 505.576M594.717 366.263L566.912 298.697M594.717 366.263L588.166 398.905M566.912 298.697L555.298 271.245L511.205 217.256M566.912 298.697L520.111 239.062M566.912 298.697L560.479 326.945M511.205 217.256L451.359 176.262M511.205 217.256L520.111 239.062M356.724 137.612L301.198 150.654M356.724 137.612L368.649 143.488M301.198 150.654L368.649 143.488M301.198 150.654L376.109 150.322M301.198 150.654L378.537 157.671M301.198 150.654L375.691 165.041M301.198 150.654L367.683 171.92M301.198 150.654L355.004 177.82M301.198 150.654L338.497 182.305M301.198 150.654L319.311 185.043M301.198 150.654L298.818 185.825M301.198 150.654L278.498 184.591M301.198 150.654L259.815 181.437M301.198 150.654L244.098 176.599M301.198 150.654L232.432 170.438M301.198 150.654L225.585 163.403M301.198 150.654L223.958 155.994M301.198 150.654L227.581 148.719M301.198 150.654L236.131 142.064M301.198 150.654L248.976 136.459M368.649 143.488L376.109 150.322M376.109 150.322L378.537 157.671M376.109 150.322L451.359 176.262M451.359 176.262L457.058 191.349M378.537 157.671L375.691 165.041M378.537 157.671L457.058 191.349M457.058 191.349L520.111 239.062M457.058 191.349L452.134 206.642M520.111 239.062L514.12 261.357M514.12 261.357L452.134 206.642M514.12 261.357L492.988 282.568M514.12 261.357L560.479 326.945M560.479 326.945L535.473 353.989M560.479 326.945L588.166 398.905M375.691 165.041L367.683 171.92M375.691 165.041L452.134 206.642M452.134 206.642L436.594 221.069M588.166 398.905L560.972 430.274M567.684 505.576L560.972 430.274M567.684 505.576L519.637 535.2M567.684 505.576L555.549 574.201M436.594 221.069L367.683 171.92M436.594 221.069L411.253 233.556M436.594 221.069L492.988 282.568M492.988 282.568L535.473 353.989M492.988 282.568L457.654 301.069M367.683 171.92L355.004 177.82M535.473 353.989L492.832 377.717M535.473 353.989L560.972 430.274M560.972 430.274L514.04 457.891M555.549 574.201L509.534 603.566M485.126 658.104L509.534 603.566M485.126 658.104L429.729 678.803M492.832 377.717L457.654 301.069M492.832 377.717L435.144 396.103M492.832 377.717L514.04 457.891M355.004 177.82L338.497 182.305M355.004 177.82L411.253 233.556M514.04 457.891L450.161 479.355M514.04 457.891L519.637 535.2M411.253 233.556L457.654 301.069M411.253 233.556L377.746 243.125M457.654 301.069L410.323 315.337M519.637 535.2L509.534 603.566M519.637 535.2L454.137 558.239M509.534 603.566L446.986 626.373M410.323 315.337L377.746 243.125M410.323 315.337L354.403 324.131M410.323 315.337L435.144 396.103M446.986 626.373L454.137 558.239M446.986 626.373L372.459 640.499M446.986 626.373L429.729 678.803M435.144 396.103L450.161 479.355M435.144 396.103L366.596 407.472M338.497 182.305L377.746 243.125M338.497 182.305L319.311 185.043M377.746 243.125L338.452 248.996M429.729 678.803L404.223 712.559M429.729 678.803L363.988 691.593M404.223 712.559L351.486 722.973M450.161 479.355L373.996 492.655M450.161 479.355L454.137 558.239M454.137 558.239L375.968 572.524M373.996 492.655L366.596 407.472M373.996 492.655L291.697 496.481M373.996 492.655L375.968 572.524M338.452 248.996L319.311 185.043M338.452 248.996L296.312 250.678M338.452 248.996L354.403 324.131M351.486 722.973L363.988 691.593M351.486 722.973L294.772 725.96M375.968 572.524L291.467 576.636M375.968 572.524L372.459 640.499M354.403 324.131L366.596 407.472M354.403 324.131L294.229 326.654M366.596 407.472L292.645 410.741M319.311 185.043L298.818 185.825M372.459 640.499L363.988 691.593M372.459 640.499L291.96 644.562M363.988 691.593L293.103 695.268M292.645 410.741L294.229 326.654M292.645 410.741L219.407 405.588M292.645 410.741L291.697 496.481M298.818 185.825L278.498 184.591M298.818 185.825L296.312 250.678M293.103 695.268L291.96 644.562M293.103 695.268L222.897 689.474M293.103 695.268L294.772 725.96M291.697 496.481L291.467 576.636M291.697 496.481L210.208 490.448M296.312 250.678L294.229 326.654M296.312 250.678L254.546 248.025M294.229 326.654L234.615 322.674M294.772 725.96L238.582 721.249M291.467 576.636L207.803 570.154M291.467 576.636L291.96 644.562M291.96 644.562L212.247 638.156M207.803 570.154L210.208 490.448M207.803 570.154L132.031 553.739M207.803 570.154L212.247 638.156M234.615 322.674L254.546 248.025M234.615 322.674L180.315 312.559M234.615 322.674L219.407 405.588M212.247 638.156L139.987 621.919M212.247 638.156L222.897 689.474M219.407 405.588L210.208 490.448M219.407 405.588L152.913 392.516M210.208 490.448L136.368 475.163M278.498 184.591L254.546 248.025M278.498 184.591L259.815 181.437M254.546 248.025L216.34 241.265M222.897 689.474L238.582 721.249M222.897 689.474L159.107 674.766M238.582 721.249L187.358 709.266M136.368 475.163L152.913 392.516M136.368 475.163L76.0385 452.117M136.368 475.163L132.031 553.739M216.34 241.265L259.815 181.437M216.34 241.265L184.527 230.962M216.34 241.265L180.315 312.559M187.358 709.266L159.107 674.766M132.031 553.739L139.987 621.919M132.031 553.739L70.1857 529.003M180.315 312.559L152.913 392.516M180.315 312.559L135.484 297.213M152.913 392.516L98.3692 372.762M259.815 181.437L244.098 176.599M139.987 621.919L80.8958 597.427M139.987 621.919L159.107 674.766M159.107 674.766L106.708 652.523M80.8958 597.427L70.1857 529.003M80.8958 597.427L39.1412 566.926M80.8958 597.427L106.708 652.523M98.3692 372.762L135.484 297.213M98.3692 372.762L59.6191 348.102M98.3692 372.762L76.0385 452.117M244.098 176.599L232.432 170.438M244.098 176.599L184.527 230.962M76.0385 452.117L70.1857 529.003M76.0385 452.117L33.4699 423.436M70.1857 529.003L26.6291 498.244M184.527 230.962L135.484 297.213M184.527 230.962L161.328 217.947M135.484 297.213L103.27 277.962M26.6291 498.244L33.4699 423.436M26.6291 498.244L39.1412 566.926M103.27 277.962L161.328 217.947M103.27 277.962L85.5893 256.364M103.27 277.962L59.6191 348.102M59.6191 348.102L33.4699 423.436M59.6191 348.102L38.8631 320.603M33.4699 423.436L11.0135 391.565M232.432 170.438L225.585 163.403M232.432 170.438L161.328 217.947M161.328 217.947L148.193 203.229M11.0135 391.565L38.8631 320.603M148.193 203.229L225.585 163.403M148.193 203.229L145.744 187.89M148.193 203.229L85.5893 256.364M85.5893 256.364L38.8631 320.603M85.5893 256.364L83.0914 234.046M225.585 163.403L223.958 155.994M83.0914 234.046L145.744 187.89M223.958 155.994L227.581 148.719M223.958 155.994L145.744 187.89M145.744 187.89L153.818 172.991M153.818 172.991L227.581 148.719M227.581 148.719L236.131 142.064M236.131 142.064L248.976 136.459" stroke="#E3ECEF" stroke-width="3" stroke-linecap="round" stroke-linejoin="round"/>
</g>
</svg>
