<svg width="600" height="600" viewBox="0 0 600 600" fill="none" xmlns="http://www.w3.org/2000/svg">
<g opacity="0.1">
<path d="M300.209 389.608V549.501M282.295 50L293.46 209.56M312.707 388.69L334.953 547.001M247.717 54.9126L281.045 211.308M325.038 386.027L369.114 539.757M214.221 64.5771L268.962 214.81M336.87 381.695L401.942 527.765M182.313 78.8161L257.467 219.972M347.951 375.785L432.687 511.361M152.733 97.3016L246.8 226.632M358.113 368.371L460.929 490.873M126.072 119.704L237.136 234.794M367.115 359.628L486.011 466.64M102.741 145.685L228.803 244.12M374.864 349.718L507.508 439.075M83.2469 174.585L221.724 254.532M381.112 338.809L524.921 408.845M67.9135 205.979L216.222 265.856M385.778 327.148L537.919 376.532M57.165 239.206L212.389 277.847M388.861 314.908L546.334 342.639M51.1685 273.519L210.225 290.258M390.111 302.416L550 307.996M50 308.412L209.806 302.832M389.61 289.839L548.75 273.1M53.667 343.056L211.141 315.324M387.444 277.433L542.668 238.792M62.0822 376.947L214.223 327.481M383.53 265.522L531.838 205.562M75.2488 409.264L218.975 339.144M377.945 254.196L516.505 174.25M92.6595 439.49L225.304 350.05M370.947 243.787L497.009 145.353M114.157 466.888L233.054 359.959M362.449 234.462L473.597 119.455M139.32 491.122L242.136 368.62M352.782 226.383L446.849 97.0527M167.564 511.608L252.383 376.031M342.117 219.803L417.188 78.5644M198.393 527.93L263.465 381.861M330.619 214.64L385.36 64.4071M231.219 539.839L275.294 386.192M318.536 211.226L351.781 54.8309M265.382 547.086L287.628 388.775M306.041 209.477L317.206 50" stroke="#E3ECEF" stroke-width="3" stroke-miterlimit="10" stroke-linecap="round" stroke-linejoin="round"/>
</g>
</svg>
