<svg width="20" height="20" viewBox="0 0 20 20" fill="none" xmlns="http://www.w3.org/2000/svg">
<path d="M2.00486 17.9951C1.89765 17.8879 1.8126 17.7606 1.75458 17.6206C1.69655 17.4805 1.66669 17.3303 1.66669 17.1787C1.66669 17.0271 1.69655 16.8769 1.75458 16.7369C1.8126 16.5968 1.89765 16.4695 2.00486 16.3623L4.45411 13.913L2.82128 12.2801C2.60475 12.0636 2.48311 11.7699 2.48311 11.4637C2.48311 11.1575 2.60475 10.8638 2.82128 10.6473C3.0378 10.4308 3.33148 10.3091 3.63769 10.3091C3.94391 10.3091 4.23758 10.4308 4.45411 10.6473L9.35269 15.5458C9.56923 15.7623 9.69089 16.056 9.69089 16.3622C9.6909 16.6684 9.56926 16.9621 9.35273 17.1787C9.13621 17.3952 8.84253 17.5169 8.5363 17.5169C8.23008 17.5169 7.9364 17.3952 7.71986 17.1787L6.08703 15.5458L3.63769 17.9951C3.53048 18.1023 3.4032 18.1874 3.26312 18.2454C3.12304 18.3034 2.9729 18.3333 2.82128 18.3333C2.66965 18.3333 2.51952 18.3034 2.37943 18.2454C2.23935 18.1874 2.11207 18.1023 2.00486 17.9951ZM17.5 1.66663H15.4129C15.1918 1.66663 14.9799 1.75443 14.8236 1.91071L6.44903 10.2853L9.71461 13.5511L18.0896 5.17613C18.2457 5.01985 18.3334 4.808 18.3334 4.58713V2.49996C18.3334 2.27895 18.2456 2.06698 18.0893 1.9107C17.933 1.75442 17.721 1.66663 17.5 1.66663ZM15.5459 13.913L17.1788 12.2801C17.3953 12.0636 17.5169 11.7699 17.5169 11.4637C17.5169 11.1575 17.3953 10.8638 17.1788 10.6473C16.9622 10.4308 16.6686 10.3091 16.3624 10.3091C16.0561 10.3091 15.7625 10.4308 15.5459 10.6473L10.6474 15.5458C10.5401 15.653 10.4551 15.7803 10.3971 15.9204C10.339 16.0605 10.3092 16.2106 10.3092 16.3622C10.3092 16.6684 10.4308 16.9621 10.6473 17.1787C10.8638 17.3952 11.1575 17.5169 11.4637 17.5169C11.77 17.5169 12.0637 17.3952 12.2802 17.1787L13.913 15.5458L16.3624 17.9951C16.5789 18.2117 16.8726 18.3333 17.1788 18.3333C17.485 18.3333 17.7787 18.2117 17.9952 17.9951C18.2117 17.7786 18.3334 17.4849 18.3334 17.1787C18.3334 16.8725 18.2117 16.5788 17.9952 16.3623L15.5459 13.913ZM4.58719 1.66663H2.50003C2.27901 1.66663 2.06705 1.75442 1.91077 1.9107C1.75449 2.06698 1.66669 2.27895 1.66669 2.49996V4.58713C1.66668 4.69657 1.68823 4.80495 1.73011 4.90607C1.77199 5.00719 1.83338 5.09907 1.91078 5.17646L5.55628 8.82188L8.82186 5.55604L5.17644 1.91071C5.02016 1.75443 4.80821 1.66663 4.58719 1.66663Z" fill="#363640"/>
</svg>
