<svg width="20" height="20" viewBox="0 0 20 20" fill="none" xmlns="http://www.w3.org/2000/svg">
<path d="M5.83335 1.71663C6.06044 1.68399 6.29238 1.66663 6.5278 1.66663H13.4722C13.7077 1.66663 13.9396 1.68399 14.1667 1.71663V7.91663H12.0834C12.0834 6.76801 11.1486 5.83329 10 5.83329C8.85141 5.83329 7.91669 6.76801 7.91669 7.91663H5.83335V1.71663ZM15.5556 7.91663H18.3334V6.52774C18.3334 4.59232 17.1965 2.91801 15.5556 2.13607V7.91663ZM12.0834 9.30551V9.99996C12.0834 11.1486 11.1486 12.0833 10 12.0833C8.85141 12.0833 7.91669 11.1486 7.91669 9.99996V9.30551H1.66669V14.8611C1.66669 16.5375 2.86183 17.9409 4.44446 18.2632V11.3888C4.44446 11.0055 4.75488 10.6944 5.13891 10.6944C5.52294 10.6944 5.83335 11.0055 5.83335 11.3888V18.3333H14.1667V11.3888C14.1667 11.0055 14.4771 10.6944 14.8611 10.6944C15.2452 10.6944 15.5556 11.0055 15.5556 11.3888V18.2632C17.1382 17.9402 18.3334 16.5375 18.3334 14.8611V9.30551H12.0834ZM4.44446 7.91663V2.13607C2.80349 2.91801 1.66669 4.59232 1.66669 6.52774V7.91663H4.44446ZM10 10.6944C10.3834 10.6944 10.6945 10.3826 10.6945 9.99996V7.91663C10.6945 7.53399 10.3834 7.22218 10 7.22218C9.61669 7.22218 9.30558 7.53399 9.30558 7.91663V9.99996C9.30558 10.3826 9.61669 10.6944 10 10.6944Z" fill="#363640"/>
</svg>
