<svg width="18" height="17" viewBox="0 0 18 17" fill="none" xmlns="http://www.w3.org/2000/svg">
<path d="M6.73004 1.32601C8.09298 0.37196 9.90702 0.37196 11.27 1.32601L15.4366 4.24268C16.4948 4.9834 17.125 6.19381 17.125 7.48547V12.1666C17.125 14.3528 15.3528 16.125 13.1667 16.125H11.5C11.1548 16.125 10.875 15.8451 10.875 15.5V12.1666C10.875 11.5913 10.4086 11.1249 9.83333 11.1249H8.16667C7.59137 11.1249 7.125 11.5913 7.125 12.1666V15.5C7.125 15.8451 6.84518 16.125 6.5 16.125H4.83333C2.64721 16.125 0.875 14.3527 0.875 12.1666V7.48547C0.875 6.19381 1.50521 4.9834 2.56338 4.24268L6.73004 1.32601Z" fill="#363640"/>
</svg>
